<svg width="20" height="24" viewBox="0 0 20 24" fill="none" xmlns="http://www.w3.org/2000/svg">
<path id="Vector" d="M19.1435 8.18317C19.0295 8.25344 16.5222 9.71321 16.5507 12.7501C16.5822 16.3825 19.735 17.5921 19.7712 17.6059C19.743 17.6923 19.2672 19.3287 18.1093 21.0187C17.1087 22.4828 16.0722 23.9386 14.4362 23.9689C12.8289 23.9984 12.3109 23.0153 10.4748 23.0153C8.63756 23.0153 8.0625 23.9385 6.54258 23.9984C4.96352 24.0581 3.76132 22.4174 2.75333 20.9613C0.692692 17.9816 -0.88282 12.5403 1.23273 8.86823C2.283 7.04455 4.16025 5.88918 6.1971 5.85934C7.74832 5.83002 9.21125 6.90216 10.1601 6.90216C11.0954 6.90216 12.7717 5.65235 14.7475 5.79852C15.5219 5.85591 17.7203 6.08704 19.1435 8.18317ZM13.5283 3.83146C14.3675 2.81728 14.9321 1.40485 14.7766 0C13.5689 0.0478967 12.1081 0.804506 11.2418 1.81805C10.4661 2.71589 9.78479 4.15388 9.96977 5.53005C11.316 5.63407 12.6899 4.84628 13.5283 3.83146Z" fill="white"/>
</svg>
