<svg width="24" height="24" viewBox="0 0 24 24" fill="none" xmlns="http://www.w3.org/2000/svg">
<path d="M9.00002 3.66669H5.00002C4.26364 3.66669 3.66669 4.26364 3.66669 5.00002V9.00002C3.66669 9.7364 4.26364 10.3334 5.00002 10.3334H9.00002C9.7364 10.3334 10.3334 9.7364 10.3334 9.00002V5.00002C10.3334 4.26364 9.7364 3.66669 9.00002 3.66669Z" stroke="white" stroke-width="1.5" stroke-linecap="round" stroke-linejoin="round"/>
<path d="M19 3.66669H15C14.2636 3.66669 13.6667 4.26364 13.6667 5.00002V9.00002C13.6667 9.7364 14.2636 10.3334 15 10.3334H19C19.7364 10.3334 20.3334 9.7364 20.3334 9.00002V5.00002C20.3334 4.26364 19.7364 3.66669 19 3.66669Z" stroke="white" stroke-width="1.5" stroke-linecap="round" stroke-linejoin="round"/>
<path d="M9.00002 13.6667H5.00002C4.26364 13.6667 3.66669 14.2636 3.66669 15V19C3.66669 19.7364 4.26364 20.3334 5.00002 20.3334H9.00002C9.7364 20.3334 10.3334 19.7364 10.3334 19V15C10.3334 14.2636 9.7364 13.6667 9.00002 13.6667Z" stroke="white" stroke-width="1.5" stroke-linecap="round" stroke-linejoin="round"/>
<path d="M6 6H8V8H6V6Z" fill="white"/>
<path d="M16 6H18V8H16V6Z" fill="white"/>
<path d="M6 16H8V18H6V16Z" fill="white"/>
<path d="M19.3334 19.3333H21.3334V21.3333H19.3334V19.3333Z" fill="white"/>
<path d="M17.3334 17.3333H19.3334V19.3333H17.3334V17.3333Z" fill="white"/>
<path d="M19.3334 15.3333H21.3334V17.3333H19.3334V15.3333Z" fill="white"/>
<path d="M14.6667 19.3333H17.3334V21.3333H14.6667V19.3333Z" fill="white"/>
<path d="M12.6667 15.3333H14.6667V19.3333H12.6667V15.3333Z" fill="white"/>
<path d="M14.6667 13.3333H19.3334V15.3333H14.6667V13.3333Z" fill="white"/>
</svg>
