<svg width="22" height="22" viewBox="0 0 22 22" fill="none" xmlns="http://www.w3.org/2000/svg">
<path d="M21.78 11.2444C21.78 10.34 21.7066 9.67998 21.5478 8.99554H11.22V13.0777H17.2822C17.16 14.0922 16.5 15.62 15.0333 16.6466L15.0127 16.7833L18.2782 19.313L18.5044 19.3355C20.5822 17.4166 21.78 14.5933 21.78 11.2444Z" fill="#4285F4"/>
<path d="M11.22 22C14.19 22 16.6833 21.0222 18.5044 19.3356L15.0333 16.6466C14.1044 17.2944 12.8577 17.7466 11.22 17.7466C8.31114 17.7466 5.84227 15.8278 4.96218 13.1756L4.83318 13.1866L1.43771 15.8143L1.39331 15.9378C3.20218 19.5311 6.91775 22 11.22 22Z" fill="#34A853"/>
<path d="M4.96218 13.1756C4.72996 12.4911 4.59557 11.7577 4.59557 11C4.59557 10.2422 4.72996 9.50887 4.94996 8.82443L4.94381 8.67866L1.50579 6.00867L1.39331 6.06217C0.647784 7.5533 0.220001 9.22778 0.220001 11C0.220001 12.7722 0.647784 14.4466 1.39331 15.9377L4.96218 13.1756Z" fill="#FBBC05"/>
<path d="M11.22 4.25331C13.2855 4.25331 14.6788 5.14552 15.4733 5.89113L18.5777 2.86C16.6711 1.08778 14.19 0 11.22 0C6.91775 0 3.20218 2.46887 1.39331 6.06218L4.94996 8.82444C5.84227 6.17222 8.31114 4.25331 11.22 4.25331Z" fill="#EB4335"/>
</svg>
