<svg width="24" height="20" viewBox="0 0 24 20" fill="none" xmlns="http://www.w3.org/2000/svg">
<path fill-rule="evenodd" clip-rule="evenodd" d="M18.0427 5.13799C17.9044 4.93046 17.6277 4.96505 17.2126 5.24176L7.97736 11.364C6.52463 12.2979 5.6945 12.1941 4.4493 11.8828C3.20409 11.5715 2.27019 11.2602 1.02499 10.8452C-0.220209 10.4301 -0.635276 9.49619 1.54383 8.66606C13.0965 3.61608 19.8068 0.814376 21.6746 0.260953C23.6461 -0.361647 24.165 0.468487 23.9574 2.02499C23.4732 6.17566 22.6431 11.3986 21.467 17.6938C21.1557 19.4578 20.3256 20.9105 17.7314 19.1465L11.2979 14.7883C10.3294 14.0965 10.1565 13.4047 10.7791 12.713C11.4324 11.9591 12.3292 11.1322 13.4458 10.1026C14.6346 9.00642 16.0726 7.68042 17.7314 5.96812C18.0773 5.62223 18.1811 5.34552 18.0427 5.13799Z" fill="url(#paint0_linear_2799_13340)"/>
<defs>
<linearGradient id="paint0_linear_2799_13340" x1="0" y1="0.0530396" x2="0" y2="19.947" gradientUnits="userSpaceOnUse">
<stop stop-color="#2AABEE"/>
<stop offset="1" stop-color="#229ED9"/>
</linearGradient>
</defs>
</svg>
