<svg width="38" height="38" viewBox="0 0 38 38" fill="none" xmlns="http://www.w3.org/2000/svg">
<g clip-path="url(#clip0_3315_25648)">
<path d="M38 0H0V38H38V0Z" fill="white" fill-opacity="0.01"/>
<path fill-rule="evenodd" clip-rule="evenodd" d="M16.5539 7.56069C13.2879 6.03495 9.27969 6.62035 6.58317 9.31686C3.38716 12.5129 3.15683 17.5515 5.89219 21.0131L5.84949 21.0558L6.58317 21.7895L16.2008 31.4072C17.3724 32.5787 19.2719 32.5787 20.4435 31.4072L24.8702 26.9804L18.5125 21.3461C17.717 21.7832 16.786 22.1624 15.7879 22.3126C14.2281 22.5473 12.5154 22.2108 11.0763 20.7716C9.77675 19.4721 9.40913 17.8505 9.63866 16.3499C9.85996 14.9033 10.6254 13.5761 11.5901 12.6094L16.5539 7.56069ZM27.0753 24.7754L30.7948 21.0558C34.239 17.6116 34.239 12.0274 30.7948 8.58317C28.445 6.23332 25.099 5.48668 22.1162 6.34322L13.8008 14.8008L13.7961 14.8055C13.2215 15.3801 12.8219 16.126 12.7156 16.8206C12.6173 17.4637 12.7611 18.0543 13.2773 18.5706C13.9133 19.2066 14.5858 19.3457 15.3247 19.2345C16.1399 19.1118 17.0167 18.6737 17.7839 18.1367C18.3738 17.7238 19.1698 17.7694 19.7087 18.2469L27.0753 24.7754Z" fill="white"/>
</g>
<defs>
<clipPath id="clip0_3315_25648">
<rect width="38" height="38" fill="white"/>
</clipPath>
</defs>
</svg>
