<svg width="28" height="28" viewBox="0 0 28 28" fill="none" xmlns="http://www.w3.org/2000/svg">
<g clip-path="url(#clip0_2799_13419)">
<path d="M8.82198 15.2751C8.21448 13.9731 8.20848 12.4791 8.80698 11.1741C9.40398 9.87065 10.544 8.89865 11.9345 8.50865C12.3455 8.39315 12.77 8.33465 13.196 8.33465C15.104 8.33465 16.8785 9.48815 17.717 11.2716L17.9825 11.8371L20.786 9.10565C21.092 8.80715 21.203 8.35865 21.0695 7.95215C20.9375 7.54565 20.5865 7.24865 20.162 7.18715L14.399 6.34865L11.822 1.12715C11.441 0.359147 10.184 0.359147 9.80298 1.12715L7.22598 6.34865L1.46298 7.18715C1.03848 7.24865 0.685977 7.54565 0.555477 7.95215C0.421977 8.35865 0.532977 8.80715 0.838977 9.10565L5.00898 13.1691L4.02498 18.9096C3.95298 19.3326 4.12548 19.7586 4.47348 20.0106C4.81698 20.2611 5.27898 20.2941 5.65698 20.0961L10.01 17.8071L8.82048 15.2736L8.82198 15.2751Z" fill="#097178"/>
<path d="M25.331 16.4061C23.8475 15.2721 20.498 15.0231 17.3465 15.7716L15.68 12.2271C15.1235 11.0436 13.802 10.3206 12.5435 10.6746C10.9415 11.1246 10.1855 12.8751 10.8605 14.3196L14.081 21.1836L11.576 20.7231C10.4825 20.5221 9.30798 20.9466 8.74398 21.9051C8.29548 22.6686 8.25648 23.5596 8.61948 24.3351C8.91198 24.9621 9.43398 25.4361 10.0895 25.6731L13.253 26.7876C14.5955 27.2601 16.0085 27.5016 17.432 27.5016H21.3575C25.31 27.5016 27.2405 23.9631 27.044 21.0816C26.8775 18.6246 26.3015 17.1501 25.328 16.4076L25.331 16.4061Z" fill="#097178"/>
</g>
<defs>
<clipPath id="clip0_2799_13419">
<rect width="27" height="27" fill="white" transform="translate(0.5 0.5)"/>
</clipPath>
</defs>
</svg>
