<svg width="48" height="40" viewBox="0 0 48 40" fill="none" xmlns="http://www.w3.org/2000/svg">
<g opacity="0.6">
<path d="M18.3862 10.6153L19.1644 11.8037C21.427 15.2586 22.5583 16.986 24.3463 17.4349C26.1342 17.8839 27.9474 16.8957 31.5736 14.9193L42.0799 9.19317L31.8678 15.4288C28.3431 17.5811 26.5807 18.6572 26.0755 20.4301C25.5703 22.203 26.5007 24.0464 28.3614 27.7333L29.0014 29.0015L28.2232 27.8132C25.9606 24.3583 24.8293 22.6308 23.0413 22.1819C21.2533 21.733 19.4402 22.7212 15.8139 24.6975L5.30762 30.4237L15.5198 24.188C19.0445 22.0358 20.8068 20.9596 21.312 19.1868C21.8173 17.4139 20.8869 15.5704 19.0262 11.8835L18.3862 10.6153Z" fill="white"/>
<g filter="url(#filter0_f_2799_13423)">
<ellipse cx="23.6938" cy="19.8083" rx="7.07683" ry="3.53842" transform="rotate(-30 23.6938 19.8083)" fill="white"/>
</g>
</g>
<defs>
<filter id="filter0_f_2799_13423" x="10.2363" y="8.05049" width="26.9149" height="23.5156" filterUnits="userSpaceOnUse" color-interpolation-filters="sRGB">
<feFlood flood-opacity="0" result="BackgroundImageFix"/>
<feBlend mode="normal" in="SourceGraphic" in2="BackgroundImageFix" result="shape"/>
<feGaussianBlur stdDeviation="3.53842" result="effect1_foregroundBlur_2799_13423"/>
</filter>
</defs>
</svg>
