<svg width="32" height="26" viewBox="0 0 32 26" fill="none" xmlns="http://www.w3.org/2000/svg">
<path id="Union" d="M1.88237 0.794338C1.05985 0.794338 0.393066 1.46112 0.393066 2.28364V6.33756C0.393066 7.16008 1.05985 7.82687 1.88237 7.82687H7.4256V18.1731C7.4256 22.0571 10.5742 25.2057 14.4581 25.2057V7.82687H22.3475C23.8162 7.82687 25.0069 9.01755 25.0069 10.4863V11.7167C22.6628 11.7167 20.3186 11.7151 17.9744 11.7151V18.7361C21.5474 18.7361 24.4439 21.6326 24.4439 25.2057H31.4649C31.4649 22.0337 30.3702 19.1174 28.5379 16.814C30.6146 15.1697 31.9469 12.6263 31.9469 9.77177C31.9469 4.81367 27.9276 0.794338 22.9695 0.794338H1.88237Z" fill="#EEEEF0"/>
</svg>
