<svg width="27" height="27" viewBox="0 0 27 27" fill="none" xmlns="http://www.w3.org/2000/svg">
<path fill-rule="evenodd" clip-rule="evenodd" d="M12.993 1.38806C13.3059 1.20398 13.6941 1.20398 14.007 1.38806L23.5695 7.01289C23.875 7.19256 24.0625 7.52046 24.0625 7.87483V19.1249C24.0625 19.4792 23.875 19.8071 23.5695 19.9868L14.007 25.6119C13.6941 25.796 13.3059 25.796 12.993 25.6119L3.43047 19.9868C3.12504 19.8071 2.9375 19.4792 2.9375 19.1249V7.87483C2.9375 7.52046 3.12505 7.19256 3.43049 7.01289L12.993 1.38806ZM18.8451 10.1561C19.1378 10.6244 18.9955 11.2413 18.5272 11.5341L14.5 14.0518V18.5625C14.5 19.1148 14.0523 19.5625 13.5 19.5625C12.9477 19.5625 12.5 19.1148 12.5 18.5625V14.0564L8.46937 11.5338C8.00121 11.2408 7.85922 10.6238 8.15222 10.1556C8.44522 9.68749 9.06225 9.5455 9.53041 9.8385L13.4964 12.3206L17.467 9.83824C17.9353 9.54547 18.5523 9.68776 18.8451 10.1561Z" fill="#097178"/>
</svg>
