<svg width="27" height="27" viewBox="0 0 27 27" fill="none" xmlns="http://www.w3.org/2000/svg">
<path fill-rule="evenodd" clip-rule="evenodd" d="M13.2247 0.727545C13.4077 0.674127 13.6022 0.674152 13.7852 0.727617L23.9054 3.68391C24.3319 3.80849 24.625 4.19951 24.625 4.6438V10.7065C24.625 17.5092 20.2715 23.5486 13.8176 25.699C13.6124 25.7674 13.3906 25.7674 13.1854 25.699C6.72983 23.5487 2.375 17.508 2.375 10.7036V4.6438C2.375 4.19941 2.66826 3.80834 3.09485 3.68384L13.2247 0.727545ZM13.9179 7.16789C14.3084 6.77737 14.9416 6.77737 15.3321 7.16789L18.1446 9.98039C18.4306 10.2664 18.5162 10.6965 18.3614 11.0702C18.2066 11.4439 17.842 11.6875 17.4375 11.6875H9.5625C9.01022 11.6875 8.5625 11.2398 8.5625 10.6875C8.5625 10.1352 9.01022 9.6875 9.5625 9.6875H15.0233L13.9179 8.58211C13.5274 8.19158 13.5274 7.55842 13.9179 7.16789ZM8.63865 13.6798C8.79343 13.3061 9.15807 13.0625 9.56253 13.0625H17.4375C17.9898 13.0625 18.4375 13.5102 18.4375 14.0625C18.4375 14.6148 17.9898 15.0625 17.4375 15.0625H11.9767L13.0821 16.1679C13.4727 16.5584 13.4727 17.1916 13.0821 17.5821C12.6916 17.9726 12.0584 17.9726 11.6679 17.5821L8.85542 14.7696C8.56942 14.4836 8.48387 14.0535 8.63865 13.6798Z" fill="#097178"/>
</svg>
