<svg width="135" height="20" viewBox="0 0 135 20" fill="none" xmlns="http://www.w3.org/2000/svg">
<path id="Union" fill-rule="evenodd" clip-rule="evenodd" d="M106.568 19.3747L111.525 4.26591H107.782L108.673 0.0398636H118.101L112.259 19.3747H106.568ZM118.846 19.43C120.162 19.7834 121.555 19.9601 123.026 19.9601C124.922 19.9601 126.615 19.6532 128.105 19.0395C129.595 18.4257 130.756 17.5887 131.588 16.5285C132.44 15.4497 132.865 14.2314 132.865 12.8737C132.865 11.8135 132.585 10.8928 132.024 10.1116C131.482 9.33041 130.698 8.73522 129.672 8.32603C129.373 8.19865 129.055 8.09024 128.72 8.00079L133.91 3.49941L134.607 0.0398636H120.214L118.913 4.30849H126.962L122.619 8.07493L121.894 11.5624H124.361C125.29 11.5624 125.967 11.7019 126.393 11.9809C126.838 12.2599 127.06 12.6691 127.06 13.2084C127.06 13.692 126.915 14.1105 126.625 14.4639C126.354 14.7987 125.947 15.0591 125.406 15.2451C124.864 15.4125 124.196 15.4962 123.403 15.4962C122.455 15.4962 121.506 15.3567 120.558 15.0777C119.629 14.7987 116.944 13.8067 116.208 13.2859L114.947 17.4941C115.798 18.413 117.53 19.0581 118.846 19.43ZM27.6014 19.3408C31.2169 19.3408 35.7608 16.4946 37.2299 10.7037C38.6991 4.91288 37.4415 0.615747 31.2169 0.179644C30.1208 0.179316 28.6396 0.179439 27.1849 0.179562L25.1013 0.179644C19.4187 1.79523 17.0371 6.52371 16.4064 10.7039C15.5884 16.1258 18.0596 19.3408 22.5995 19.3408H27.6014ZM27.2782 14.2005C28.9422 14.2005 31.0335 12.8905 31.7097 10.2254C32.3859 7.56019 31.807 5.58248 28.9422 5.38177H26.1277C23.5122 6.12532 22.4162 8.30157 22.1259 10.2255C21.7494 12.7208 22.8867 14.2005 24.9762 14.2005H27.2782ZM3.96598 0.211163L0.32959 5.09916H6.19588L1.73609 19.3747H7.56815L12.1308 5.09916H15.9044L19.4038 0.211163H3.96598ZM47.7405 0.211163H41.9084L36.0056 19.3747H41.9084L44.5831 11.1406L50.4289 19.3747H72.8284L76.0428 14.5515H64.6532L65.1678 12.415H71.8233L75.5626 7.39752H68.4613L65.854 10.3756L67.2605 5.09916H77.1407L80.434 0.211163H63.0066L56.9688 18.9863L51.2396 9.85769L61.9088 0.211163H55.0133L45.3047 8.59524L47.7405 0.211163ZM76.0428 19.3747L82.218 0.211163H89.5937L91.2404 10.7641L94.4308 0.211163H100.469L94.6709 19.3747H87.055L85.3398 9.14553L82.218 19.3747H76.0428Z" fill="#EEEEF0"/>
</svg>
